<svg xmlns="http://www.w3.org/2000/svg" version="1.1" xmlns:xlink="http://www.w3.org/1999/xlink" viewBox="0 0 200 200"><rect width="200" height="200" fill="url('#gradient')"></rect><defs><linearGradient id="gradient" gradientTransform="rotate(45 0.5 0.5)"><stop offset="0%" stop-color="#cfb193"></stop><stop offset="100%" stop-color="#c1ae7d"></stop></linearGradient></defs><g><g fill="#4b4a3a" transform="matrix(1.3385620915032679,0,0,1.3385620915032679,8.56227735990013,107.25492843677794)" stroke="#70545b" stroke-width="1.35"><path d="M8.87 0L6.36-5.02L4.50-5.02L4.50 0L1.07 0L1.07-14.22L6.67-14.22Q9.20-14.22 10.63-13.10Q12.05-11.97 12.05-9.92L12.05-9.92Q12.05-8.44 11.45-7.46Q10.85-6.48 9.57-5.88L9.57-5.88L12.54-0.15L12.54 0L8.87 0ZM4.50-11.57L4.50-7.67L6.67-7.67Q7.65-7.67 8.14-8.18Q8.63-8.69 8.63-9.61Q8.63-10.53 8.13-11.05Q7.64-11.57 6.67-11.57L6.67-11.57L4.50-11.57ZM17.44-10.57L17.44 0L14.14 0L14.14-10.57L17.44-10.57ZM13.95-13.29L13.95-13.29Q13.95-13.99 14.45-14.44Q14.96-14.89 15.77-14.89Q16.58-14.89 17.09-14.44Q17.60-13.99 17.60-13.29Q17.60-12.59 17.09-12.14Q16.58-11.69 15.77-11.69Q14.96-11.69 14.45-12.14Q13.95-12.59 13.95-13.29ZM25-2.97L25-2.97Q25-3.39 24.56-3.64Q24.12-3.90 22.89-4.17Q21.66-4.44 20.86-4.89Q20.06-5.33 19.64-5.97Q19.22-6.60 19.22-7.42L19.22-7.42Q19.22-8.88 20.42-9.82Q21.62-10.76 23.56-10.76L23.56-10.76Q25.65-10.76 26.92-9.81Q28.19-8.87 28.19-7.32L28.19-7.32L24.89-7.32Q24.89-8.59 23.55-8.59L23.55-8.59Q23.04-8.59 22.69-8.31Q22.33-8.02 22.33-7.59L22.33-7.59Q22.33-7.15 22.76-6.88Q23.19-6.60 24.14-6.43Q25.08-6.25 25.79-6.01L25.79-6.01Q28.17-5.19 28.17-3.07L28.17-3.07Q28.17-1.62 26.89-0.71Q25.61 0.20 23.56 0.20L23.56 0.20Q22.21 0.20 21.14-0.29Q20.08-0.78 19.48-1.62Q18.89-2.46 18.89-3.39L18.89-3.39L21.96-3.39Q21.98-2.66 22.45-2.32Q22.92-1.98 23.65-1.98L23.65-1.98Q24.33-1.98 24.66-2.26Q25-2.53 25-2.97ZM33.18-10.57L33.18 0L29.88 0L29.88-10.57L33.18-10.57ZM29.69-13.29L29.69-13.29Q29.69-13.99 30.20-14.44Q30.70-14.89 31.51-14.89Q32.32-14.89 32.83-14.44Q33.34-13.99 33.34-13.29Q33.34-12.59 32.83-12.14Q32.32-11.69 31.51-11.69Q30.70-11.69 30.20-12.14Q29.69-12.59 29.69-13.29ZM35.15-10.57L38.23-10.57L38.34-9.33Q39.43-10.76 41.36-10.76L41.36-10.76Q43.01-10.76 43.82-9.78Q44.64-8.79 44.67-6.81L44.67-6.81L44.67 0L41.37 0L41.37-6.67Q41.37-7.47 41.04-7.85Q40.72-8.22 39.87-8.22L39.87-8.22Q38.91-8.22 38.44-7.46L38.44-7.46L38.44 0L35.15 0L35.15-10.57ZM46.10-5.24L46.10-5.36Q46.10-6.96 46.63-8.19Q47.16-9.42 48.14-10.09Q49.13-10.76 50.44-10.76L50.44-10.76Q52.09-10.76 53.02-9.65L53.02-9.65L53.13-10.57L56.12-10.57L56.12-0.40Q56.12 1.00 55.47 2.03Q54.82 3.06 53.59 3.61Q52.36 4.16 50.74 4.16L50.74 4.16Q49.58 4.16 48.49 3.72Q47.40 3.28 46.83 2.58L46.83 2.58L48.20 0.64Q49.12 1.73 50.63 1.73L50.63 1.73Q52.81 1.73 52.81-0.52L52.81-0.52L52.81-0.85Q51.87 0.20 50.42 0.20L50.42 0.20Q48.49 0.20 47.29-1.28Q46.10-2.76 46.10-5.24L46.10-5.24ZM49.40-5.16L49.40-5.16Q49.40-3.86 49.89-3.10Q50.38-2.34 51.26-2.34L51.26-2.34Q52.32-2.34 52.81-3.06L52.81-3.06L52.81-7.50Q52.33-8.22 51.28-8.22L51.28-8.22Q50.40-8.22 49.90-7.44Q49.40-6.65 49.40-5.16ZM68.74-4.82L66.55-4.82L66.55 0L63.13 0L63.13-14.22L68.80-14.22Q70.43-14.22 71.68-13.62Q72.94-13.02 73.63-11.91Q74.32-10.80 74.32-9.39L74.32-9.39Q74.32-7.31 72.83-6.07Q71.34-4.82 68.74-4.82L68.74-4.82ZM66.55-11.57L66.55-7.47L68.80-7.47Q69.79-7.47 70.32-7.97Q70.84-8.47 70.84-9.38L70.84-9.38Q70.84-10.37 70.30-10.97Q69.77-11.56 68.84-11.57L68.84-11.57L66.55-11.57ZM79.21-15L79.21-9.43Q80.26-10.76 81.90-10.76L81.90-10.76Q83.65-10.76 84.54-9.73Q85.43-8.69 85.45-6.67L85.45-6.67L85.45 0L82.15 0L82.15-6.59Q82.15-7.43 81.81-7.83Q81.46-8.22 80.64-8.22L80.64-8.22Q79.63-8.22 79.21-7.58L79.21-7.58L79.21 0L75.92 0L75.92-15L79.21-15ZM86.88-4.82L86.87-5.38Q86.87-6.96 87.48-8.20Q88.10-9.43 89.25-10.10Q90.40-10.76 91.95-10.76L91.95-10.76Q94.33-10.76 95.69-9.29Q97.06-7.82 97.06-5.29L97.06-5.29L97.06-5.18Q97.06-2.71 95.69-1.25Q94.32 0.20 91.97 0.20L91.97 0.20Q89.72 0.20 88.35-1.16Q86.98-2.51 86.88-4.82L86.88-4.82ZM90.17-5.77L90.16-5.18Q90.16-3.71 90.62-3.03Q91.07-2.34 91.97-2.34L91.97-2.34Q93.73-2.34 93.77-5.05L93.77-5.05L93.77-5.38Q93.77-8.22 91.95-8.22L91.95-8.22Q90.30-8.22 90.17-5.77L90.17-5.77ZM103.62 0.20L103.62 0.20Q101.19 0.20 99.69-1.25Q98.18-2.71 98.18-5.03L98.18-5.03L98.18-5.30Q98.18-6.92 98.78-8.16Q99.38-9.40 100.54-10.08Q101.69-10.76 103.27-10.76L103.27-10.76Q105.50-10.76 106.79-9.38Q108.08-8.00 108.08-5.53L108.08-5.53L108.08-4.25L101.53-4.25Q101.71-3.36 102.30-2.85Q102.90-2.34 103.85-2.34L103.85-2.34Q105.41-2.34 106.29-3.44L106.29-3.44L107.79-1.66Q107.18-0.81 106.05-0.31Q104.92 0.20 103.62 0.20ZM103.25-8.22L103.25-8.22Q101.81-8.22 101.53-6.31L101.53-6.31L104.85-6.31L104.85-6.56Q104.87-7.35 104.45-7.79Q104.03-8.22 103.25-8.22ZM109.34-10.57L112.42-10.57L112.53-9.33Q113.62-10.76 115.55-10.76L115.55-10.76Q117.20-10.76 118.01-9.78Q118.83-8.79 118.86-6.81L118.86-6.81L118.86 0L115.56 0L115.56-6.67Q115.56-7.47 115.23-7.85Q114.91-8.22 114.06-8.22L114.06-8.22Q113.10-8.22 112.63-7.46L112.63-7.46L112.63 0L109.34 0L109.34-10.57ZM124.15-10.57L124.15 0L120.85 0L120.85-10.57L124.15-10.57ZM120.65-13.29L120.65-13.29Q120.65-13.99 121.16-14.44Q121.67-14.89 122.48-14.89Q123.29-14.89 123.80-14.44Q124.31-13.99 124.31-13.29Q124.31-12.59 123.80-12.14Q123.29-11.69 122.48-11.69Q121.67-11.69 121.16-12.14Q120.65-12.59 120.65-13.29ZM128.97-10.57L130.46-7.66L131.99-10.57L135.41-10.57L132.63-5.42L135.55 0L132.11 0L130.45-3.13L128.82 0L125.36 0L128.29-5.42L125.52-10.57L128.97-10.57Z"></path></g></g></svg>